<?xml version="1.0" encoding="UTF-8" standalone="no"?>
<svg
   role="img"
   viewBox="0 0 24 24"
   version="1.1"
   id="svg1"
   sodipodi:docname="cisco.svg"
   xml:space="preserve"
   inkscape:version="1.3 (0e150ed6c4, 2023-07-21)"
   xmlns:inkscape="http://www.inkscape.org/namespaces/inkscape"
   xmlns:sodipodi="http://sodipodi.sourceforge.net/DTD/sodipodi-0.dtd"
   xmlns:xlink="http://www.w3.org/1999/xlink"
   xmlns="http://www.w3.org/2000/svg"
   xmlns:svg="http://www.w3.org/2000/svg"><defs
     id="defs1" /><sodipodi:namedview
     id="namedview1"
     pagecolor="#ffffff"
     bordercolor="#000000"
     borderopacity="0.25"
     inkscape:showpageshadow="2"
     inkscape:pageopacity="0.0"
     inkscape:pagecheckerboard="0"
     inkscape:deskcolor="#d1d1d1"
     inkscape:zoom="48.875"
     inkscape:cx="8.9923274"
     inkscape:cy="13.432225"
     inkscape:window-width="2560"
     inkscape:window-height="1369"
     inkscape:window-x="-8"
     inkscape:window-y="-8"
     inkscape:window-maximized="1"
     inkscape:current-layer="svg1" /><title
     id="title1">Node.js</title><path
     d="m 11.998,24 c -0.321,0 -0.641,-0.084 -0.922,-0.247 L 8.14,22.016 C 7.702,21.771 7.916,21.684 8.06,21.633 8.645,21.43 8.763,21.383 9.388,21.029 9.453,20.992 9.539,21.006 9.606,21.046 l 2.256,1.339 c 0.082,0.045 0.197,0.045 0.272,0 l 8.795,-5.076 c 0.082,-0.047 0.134,-0.141 0.134,-0.238 V 6.921 c 0,-0.099 -0.053,-0.192 -0.137,-0.242 L 12.135,1.607 C 12.054,1.56 11.946,1.56 11.864,1.607 L 3.075,6.68 C 2.99,6.729 2.936,6.825 2.936,6.921 v 10.15 c 0,0.097 0.054,0.189 0.139,0.235 l 2.409,1.392 c 1.307,0.654 2.108,-0.116 2.108,-0.89 V 7.787 c 0,-0.142 0.114,-0.253 0.256,-0.253 h 1.115 c 0.139,0 0.255,0.112 0.255,0.253 v 10.021 c 0,1.745 -0.95,2.745 -2.604,2.745 -0.508,0 -0.909,0 -2.026,-0.551 L 2.28,18.675 C 1.71,18.346 1.358,17.73 1.358,17.071 V 6.921 c 0,-0.659 0.353,-1.275 0.922,-1.603 l 8.795,-5.082 c 0.557,-0.315 1.296,-0.315 1.848,0 l 8.794,5.082 c 0.57,0.329 0.924,0.944 0.924,1.603 v 10.15 c 0,0.659 -0.354,1.273 -0.924,1.604 l -8.794,5.078 C 12.643,23.916 12.324,24 11.998,24 Z m 7.101,-10.007 c 0,-1.9 -1.284,-2.406 -3.987,-2.763 -2.731,-0.361 -3.009,-0.548 -3.009,-1.187 0,-0.528 0.235,-1.233 2.258,-1.233 1.807,0 2.473,0.389 2.747,1.607 0.024,0.115 0.129,0.199 0.247,0.199 h 1.141 c 0.071,0 0.138,-0.031 0.186,-0.081 0.048,-0.054 0.074,-0.123 0.067,-0.196 -0.177,-2.098 -1.571,-3.076 -4.388,-3.076 -2.508,0 -4.004,1.058 -4.004,2.833 0,1.925 1.488,2.457 3.895,2.695 2.88,0.282 3.103,0.703 3.103,1.269 0,0.983 -0.789,1.402 -2.642,1.402 -2.327,0 -2.839,-0.584 -3.011,-1.742 -0.02,-0.124 -0.126,-0.215 -0.253,-0.215 h -1.137 c -0.141,0 -0.254,0.112 -0.254,0.253 0,1.482 0.806,3.248 4.655,3.248 2.788,0.001 4.386,-1.096 4.386,-3.013 z"
     id="path1"
     style="display:none" /><g
     style="display:inline;fill-opacity:1"
     id="g1"
     transform="matrix(0.33108405,0,0,0.33108405,0.13314248,6.6831691)"><path
       d="m 23.521,25.2449 h -3.157 v 12.511 h 3.157 z"
       style="stroke-width:0.096737;fill-opacity:1"
       id="path268" /><use
       xlink:href="#path284"
       transform="translate(32.9532)"
       id="use360"
       style="fill-opacity:1" /><path
       d="m 16.0236,28.8299 c -0.127,-0.066 -1.142,-0.668 -2.652,-0.668 -2.045,0 -3.46,1.421 -3.46,3.337 0,1.859 1.356,3.34 3.46,3.34 1.484,0 2.516,-0.589 2.652,-0.664 v 3.358 c -0.392,0.111 -1.469,0.445 -2.879,0.445 -3.549,0 -6.662,-2.448 -6.662,-6.479 0,-3.736 2.82,-6.476 6.662,-6.476 1.486,0 2.582,0.361 2.879,0.449 z"
       id="path284"
       style="fill-opacity:1" /><path
       d="m 58.9084,28.2088 c -1.873,0 -3.264,1.474 -3.264,3.29 0,1.82 1.391,3.293 3.264,3.293 1.871,0 3.266,-1.473 3.266,-3.293 0,-1.816 -1.395,-3.29 -3.266,-3.29 m 6.611,3.29 c 0,3.579 -2.763,6.479 -6.611,6.479 -3.848,0 -6.607,-2.9 -6.607,-6.479 0,-3.573 2.759,-6.476 6.607,-6.476 3.848,0 6.611,2.903 6.611,6.476"
       id="path288"
       style="fill-opacity:1" /><path
       d="m 35.4934,28.0887 c -0.047,-0.015 -1.376,-0.382 -2.468,-0.382 -1.265,0 -1.953,0.424 -1.953,1.025 0,0.762 0.928,1.028 1.447,1.192 l 0.871,0.277 c 2.049,0.652 2.983,2.055 2.983,3.579 0,3.143 -2.764,4.199 -5.18,4.199 -1.679,0 -3.252,-0.309 -3.407,-0.342 v -2.879 c 0.278,0.07 1.602,0.465 2.981,0.465 1.571,0 2.293,-0.459 2.293,-1.168 0,-0.634 -0.625,-1 -1.408,-1.246 -0.191,-0.064 -0.478,-0.154 -0.674,-0.218 -1.758,-0.556 -3.224,-1.589 -3.224,-3.66 0,-2.34 1.752,-3.911 4.662,-3.911 1.537,0 2.983,0.373 3.077,0.398 z"
       id="path292"
       style="fill-opacity:1" /><g
       style="fill-opacity:1"
       id="g383"><path
         d="m 3.135,11.7996 c 0,-0.862 -0.704,-1.561 -1.567,-1.561 -0.863,0 -1.568,0.699 -1.568,1.561 v 3.284 c 0,0.867 0.705,1.567 1.568,1.567 0.863,0 1.567,-0.7 1.567,-1.567 z"
         id="path296"
         style="fill-opacity:1" /><path
         d="m 11.7443,7.4891 c 0,-0.862 -0.704,-1.563 -1.567,-1.563 -0.864,0 -1.568,0.701 -1.568,1.563 v 7.595 c 0,0.867 0.704,1.566 1.568,1.566 0.863,0 1.567,-0.699 1.567,-1.566 z"
         id="path300"
         style="fill-opacity:1" /><path
         d="m 20.3537,1.5916 c 0,-0.862 -0.704,-1.562 -1.567,-1.562 -0.864,0 -1.568,0.7 -1.568,1.562 v 16.613 c 0,0.867 0.704,1.567 1.568,1.567 0.863,0 1.567,-0.7 1.567,-1.567 z"
         id="path304"
         style="fill-opacity:1" /><path
         d="m 28.9631,7.4891 c 0,-0.862 -0.704,-1.563 -1.567,-1.563 -0.864,0 -1.568,0.701 -1.568,1.563 v 7.595 c 0,0.867 0.704,1.566 1.568,1.566 0.863,0 1.567,-0.699 1.567,-1.566 z"
         id="path308"
         style="fill-opacity:1" /><path
         d="m 37.5627,11.7996 c 0,-0.862 -0.699,-1.561 -1.558,-1.561 -0.863,0 -1.567,0.699 -1.567,1.561 v 3.284 c 0,0.867 0.704,1.567 1.567,1.567 0.859,0 1.558,-0.7 1.558,-1.567 z"
         id="path312"
         style="fill-opacity:1" /></g><use
       xlink:href="#g383"
       transform="translate(34.4317)"
       id="use385"
       style="fill-opacity:1" /><path
       d="m 70.1936,36.1082 v 0.196 h -0.558 v 1.451 h -0.229 v -1.451 h -0.561 v -0.196 z"
       id="path332"
       style="fill-opacity:1" /><path
       d="m 70.3107,36.1082 h 0.359 l 0.493,1.351 h 0.008 l 0.477,-1.351 h 0.352 v 1.647 h -0.235 v -1.35 h -0.008 l -0.5,1.35 h -0.217 l -0.488,-1.35 h -0.011 v 1.35 h -0.23 z"
       id="path336"
       style="fill-opacity:1" /></g></svg>
