<?xml version="1.0" encoding="UTF-8" standalone="no"?>
<svg
   role="img"
   viewBox="0 0 24 24"
   version="1.1"
   id="svg1"
   sodipodi:docname="docker.svg"
   xml:space="preserve"
   inkscape:version="1.3 (0e150ed6c4, 2023-07-21)"
   xmlns:inkscape="http://www.inkscape.org/namespaces/inkscape"
   xmlns:sodipodi="http://sodipodi.sourceforge.net/DTD/sodipodi-0.dtd"
   xmlns="http://www.w3.org/2000/svg"
   xmlns:svg="http://www.w3.org/2000/svg"><defs
     id="defs1" /><sodipodi:namedview
     id="namedview1"
     pagecolor="#ffffff"
     bordercolor="#000000"
     borderopacity="0.25"
     inkscape:showpageshadow="2"
     inkscape:pageopacity="0.0"
     inkscape:pagecheckerboard="0"
     inkscape:deskcolor="#d1d1d1"
     inkscape:zoom="17.279922"
     inkscape:cx="5.2372922"
     inkscape:cy="26.99665"
     inkscape:window-width="2560"
     inkscape:window-height="1369"
     inkscape:window-x="-8"
     inkscape:window-y="-8"
     inkscape:window-maximized="1"
     inkscape:current-layer="svg1" /><title
     id="title1">Prisma</title><style
     type="text/css"
     id="style1">&#10;	.Arched_x0020_Green{fill:url(#SVGID_1_);stroke:#FFFFFF;stroke-width:0.25;stroke-miterlimit:1;}&#10;</style><path
     fill-rule="evenodd"
     d="m 6.9902375,15.047796 c 0.055397,0 0.1081837,0.01043 0.1569377,0.0293 -0.052786,0.0306 -0.088609,0.08784 -0.088609,0.15326 0,0.0978 0.079239,0.176928 0.1770443,0.176928 0.066963,0 0.1250886,-0.0372 0.1552174,-0.09211 0.021175,0.05119 0.033038,0.107351 0.033038,0.16631 0,0.239502 -0.1941877,0.433629 -0.4336276,0.433629 -0.2394429,0 -0.4336887,-0.194127 -0.4336887,-0.433629 0,-0.239561 0.1942458,-0.433688 0.4336879,-0.433688 z m 0,1.175501 c -0.4090728,0 -0.7419313,-0.33274 -0.7419313,-0.741812 0,-0.409077 0.3328585,-0.741875 0.7419313,-0.741875 0.4090148,0 0.741812,0.332798 0.741812,0.741875 0,0.409072 -0.3327972,0.741812 -0.741812,0.741812 z M 20.324715,11.361568 c -2.106698,5.582246 -6.864392,8.068716 -12.4735072,8.068716 -2.65029,0 -4.7646374,-0.911565 -6.1168859,-2.431486 l 0.00995,-0.0066 c 0.3896183,0.01975 0.738255,0.02646 1.0921692,0.02646 0.3236042,0 0.6401491,-0.0034 0.9333302,-0.01988 0.025501,-0.0013 0.057411,-0.005 0.082737,-0.0066 2.39e-4,-5.9e-5 0.090452,-0.0059 0.046323,-0.0066 0.7450753,-0.04597 1.3225932,-0.149521 1.8611438,-0.303201 1.196e-4,-6.1e-5 2.39e-4,-6.1e-5 3.229e-4,-1.2e-4 0.097864,-0.02799 0.192761,-0.05748 0.2836878,-0.08896 0.1017185,-0.03529 0.1555753,-0.146328 0.1203437,-0.248041 -0.035233,-0.101783 -0.146201,-0.155747 -0.2479808,-0.120349 -0.6840453,0.23701 -1.5864748,0.367495 -2.6924593,0.391991 H 3.2235892 C 2.660839,16.629418 2.045658,16.614698 1.378459,16.571648 h -5.78e-5 C 1.2403845,16.387426 1.1126241,16.195907 0.99578017,15.997568 L 0.81108218,15.659849 C 0.25307767,14.562819 0.00877349,13.281269 0.13842891,11.889517 H 16.367677 c 1.333269,0 2.635341,-0.497569 3.25325,-1.046439 -1.107204,-0.9003731 -0.997478,-3.0388627 -0.291785,-3.8548735 0.612453,0.4921097 1.600053,1.5287048 1.430185,2.8482731 0.770694,-0.3874261 2.109186,-0.5788829 3.150048,0.021756 C 23.255878,11.133793 21.819403,11.514874 20.32469,11.36155 Z M 2.3412013,11.495556 H 4.5358558 V 9.3007806 H 2.3412013 Z m 2.5322581,0 H 7.0683498 V 9.3007806 H 4.8734594 Z m 0,-2.5323753 H 7.0683498 V 6.7684658 H 4.8734594 Z M 7.4058953,11.495556 H 9.6006694 V 9.3007806 H 7.4058953 Z m 0,-2.5323753 H 9.6006694 V 6.7684658 H 7.4058953 Z M 9.9382117,11.495556 H 12.132985 V 9.3007806 H 9.9382117 Z m 0,-2.5323753 H 12.132985 V 6.7684658 H 9.9382117 Z m 0,-2.5322586 H 12.132985 V 4.2361495 H 9.9382117 Z m 2.5323153,5.0646339 h 2.194775 V 9.3007806 h -2.194775 z"
     id="path1"
     style="stroke-width:0.991872" /></svg>
