<?xml version="1.0" encoding="UTF-8" standalone="no"?>
<svg
   id="logo-1"
   viewBox="0 0 132 40"
   fill="currentColor"
   version="1.1"
   sodipodi:docname="logo-1.svg"
   inkscape:version="1.3 (0e150ed6c4, 2023-07-21)"
   xmlns:inkscape="http://www.inkscape.org/namespaces/inkscape"
   xmlns:sodipodi="http://sodipodi.sourceforge.net/DTD/sodipodi-0.dtd"
   xmlns="http://www.w3.org/2000/svg"
   xmlns:svg="http://www.w3.org/2000/svg">
  <defs
     id="defs2" />
  <sodipodi:namedview
     id="namedview2"
     pagecolor="#ffffff"
     bordercolor="#000000"
     borderopacity="0.25"
     inkscape:showpageshadow="2"
     inkscape:pageopacity="0.0"
     inkscape:pagecheckerboard="0"
     inkscape:deskcolor="#d1d1d1"
     inkscape:zoom="9.6530789"
     inkscape:cx="68.061186"
     inkscape:cy="40.34982"
     inkscape:window-width="2560"
     inkscape:window-height="1369"
     inkscape:window-x="-8"
     inkscape:window-y="-8"
     inkscape:window-maximized="1"
     inkscape:current-layer="logo-1" />
  <path
     clip-path="none"
     d="m 20.56679,30.149342 -2.325187,-1.69013 -3.878652,2.817626 4.722782,3.431766 z m 3.095205,2.248015 -3.878486,2.818817 3.878486,2.817283 3.876271,-2.817283 z m -8.103388,-5.888181 h 6.184116 L 7.5235505,16.177156 10.842792,23.084549 Z M 22.048014,25.591103 23.230919,21.953826 3.3645965,7.5191115 6.6834985,14.427867 Z M 11.036742,11.955476 6.1810295,1.8519096 3.8386755,6.7259794 Z m 18.043262,16.503736 -2.324336,1.69013 1.482246,4.559262 4.721084,-3.431766 z m -3.49993,-1.950036 h 6.183949 l 4.715812,-3.424627 3.317886,-6.907393 z M 43.958202,7.5191115 24.092555,21.953826 25.273766,25.591103 40.63845,14.427867 Z M 43.48378,6.7259794 41.141597,1.8519096 36.284529,11.955476 Z"
     fill="#00529b"
     id="path1"
     style="stroke-width:0.169982" />
  <path
     fill="#00529b"
     d="m 21.507319,29.138891 c 0,-1.189299 0.964881,-2.154901 2.155625,-2.154901 1.18954,0.0014 2.153504,0.965361 2.154897,2.154901 0,1.190739 -0.966687,2.155439 -2.154897,2.155439 -1.190447,1e-6 -2.155524,-0.964992 -2.155625,-2.155439 z"
     clip-path="none"
     id="path2"
     style="stroke-width:0.180689"
     sodipodi:nodetypes="cccsc" />
  <path
     d="m 43.79776,17.359555 h 2.176812 v 4.937628 c 0,0.54227 0.03458,0.936398 0.172802,1.268658 0.276483,0.676768 0.829201,0.86196 1.269911,0.86196 0.570126,0 0.898325,-0.283002 1.045142,-0.480422 0.371084,-0.492288 0.38017,-1.280534 0.38017,-1.699097 v -4.888374 h 2.176812 v 4.555736 c 0,1.02198 -0.0169,2.093226 -0.353929,2.832557 -0.665229,1.477221 -2.271921,1.612798 -3.239363,1.612798 -1.356188,0 -2.124848,-0.271139 -2.582712,-0.664178 -0.950288,-0.665619 -1.045142,-2.044672 -1.045142,-2.746606 v -5.591024 z m 7.803373,6.427806 h 1.986854 v 2.265457 h -1.986854 z m 5.31477,-4.186802 c 0,0.123331 0.02571,0.234092 0.0691,0.308181 0.146818,0.271128 0.760084,0.467473 1.097106,0.566359 l 1.25226,0.381175 c 0.267906,0.07408 0.52698,0.160739 0.786309,0.308181 0.811799,0.431157 1.071383,1.293108 1.071383,2.080989 -0.0017,0.530548 -0.112865,1.048657 -0.319622,1.489815 -0.509833,1.096049 -1.537823,1.576472 -3.179071,1.576472 -0.613264,0 -1.831203,-0.0737 -2.5479,-0.984936 -0.52698,-0.665257 -0.604936,-1.465363 -0.639243,-1.859124 l 2.150832,-0.08665 c 0.07769,0.566732 0.483594,0.997527 1.347614,0.997527 0.224765,0 0.544132,-0.03705 0.760073,-0.208923 0.14682,-0.123346 0.30247,-0.370017 0.30247,-0.665246 0,-0.406706 -0.233096,-0.579311 -0.405899,-0.665255 -0.267906,-0.122989 -1.641248,-0.4682 -1.943962,-0.566733 -0.236487,-0.07157 -0.469953,-0.162103 -0.69929,-0.271136 -0.233096,-0.122989 -1.209617,-0.615986 -1.209617,-2.204333 0,-0.653034 0.190203,-1.256082 0.492424,-1.699098 0.682383,-1.009391 1.909153,-1.107926 2.582713,-1.107926 0.742921,0 1.477521,0.147439 1.857188,0.331917 1.140247,0.517454 1.287318,1.736853 1.347859,2.20469 l -2.142248,0.172607 c -0.05199,-0.283714 -0.15565,-0.800817 -1.071376,-0.800817 -0.285323,0 -0.959121,0.06185 -0.959121,0.702286 z m 4.98605,4.186802 h 1.986854 v 2.265457 h -1.986854 z m 9.918133,-1.071245 h -1.416475 l 0.699537,-2.942951 z m -4.595548,3.336702 h 2.393005 l 0.328198,-1.416448 h 2.33246 l 0.3282,1.416448 h 2.375855 l -2.64376,-8.693263 h -2.487603 z m 10.752881,-8.693263 v 8.693263 h -2.185644 v -8.693263 z m 3.808727,1.970225 h 1.814306 c 0.163977,0 0.38849,0.02419 0.561293,0.24668 0.112501,0.147795 0.155655,0.356723 0.155655,0.554134 0,0.775654 -0.552973,0.78788 -0.889995,0.78788 h -1.641259 z m -2.18539,6.723038 h 2.18539 v -3.164461 h 1.16623 l 1.252252,3.164461 h 2.418996 l -1.528993,-3.472632 c 0.259075,-0.0985 0.673807,-0.221881 1.019158,-0.812693 0.250752,-0.430796 0.388995,-1.034921 0.388995,-1.650187 0,-0.874547 -0.276482,-1.723557 -0.717193,-2.204334 -0.509578,-0.529693 -1.166231,-0.542271 -1.701538,-0.554144 h -4.483544 z m 10.282662,-8.693263 h 5.977462 v 1.95765 h -3.792075 v 1.662417 h 3.48103 v 1.945423 h -3.48103 v 3.127773 h -2.185642 v -8.693263 z m 10.872202,1.612789 c 1.49418,0.02492 1.78832,1.77318 1.78832,2.72144 0,0.873813 -0.23309,2.007268 -0.90715,2.487329 -0.26765,0.197064 -0.5787,0.246679 -0.88117,0.246679 -1.321377,0 -1.831457,-1.39129 -1.831457,-2.733665 0,-1.194587 0.45812,-2.746244 1.831457,-2.721795 z m -0.12966,-1.933196 c -1.079957,0.02492 -2.530997,0.30818 -3.386181,2.032447 -0.389247,0.787162 -0.562049,1.748364 -0.562049,2.721076 0,0.997162 0.164221,1.834662 0.578694,2.622543 0.449299,0.874538 1.321879,1.945422 3.446726,1.945422 1.10544,0 2.09029,-0.220786 2.91974,-1.157183 0.29339,-0.320403 0.53531,-0.713804 0.72577,-1.170132 0.30221,-0.714159 0.44071,-1.550942 0.44071,-2.363638 0,-1.489815 -0.49242,-3.312964 -1.89225,-4.124943 -0.69904,-0.407421 -1.51159,-0.517454 -2.27141,-0.505592 z m 7.5675,2.290632 h 1.81431 c 0.16397,0 0.38874,0.02419 0.56129,0.24668 0.11277,0.147795 0.15566,0.356723 0.15566,0.554134 0,0.775654 -0.55298,0.78788 -0.88974,0.78788 h -1.64152 z m -2.18564,6.723038 h 2.18564 v -3.164461 h 1.16624 l 1.2525,3.164461 h 2.41873 l -1.52923,-3.472632 c 0.25932,-0.0985 0.67405,-0.221881 1.0194,-0.812693 0.25076,-0.430796 0.38874,-1.034921 0.38874,-1.650187 0,-0.874547 -0.27623,-1.723557 -0.71694,-2.204334 -0.50958,-0.529693 -1.16597,-0.542271 -1.70128,-0.554144 h -4.4838 z M 116.21,21.706362 c 0,1.317572 0.54389,2.68476 1.79665,2.68476 0.47477,0 0.91522,-0.209643 1.23535,-0.578956 0.28481,-0.332986 0.37134,-0.615263 0.44045,-0.874895 l 2.08146,0.307809 c -0.0691,0.320405 -0.14656,0.640441 -0.3456,1.083471 -0.71694,1.576476 -2.11653,2.019858 -3.4553,2.019858 -0.5961,0 -1.18365,-0.07441 -1.74494,-0.320397 -1.25275,-0.554505 -2.28907,-1.920971 -2.28907,-4.309424 0,-1.687223 0.62159,-4.728708 4.0943,-4.728708 2.96262,0 3.42981,1.920969 3.62809,2.745889 l -2.02115,0.517105 c -0.086,-0.246678 -0.19021,-0.57931 -0.50983,-0.874541 -0.32845,-0.295593 -0.73436,-0.394481 -1.04514,-0.394481 -0.9841,0 -1.86501,0.874178 -1.86501,2.721794 z m 12.93625,-4.346807 v 1.95765 h -4.2416 v 1.416093 h 3.92198 v 1.970226 h -3.93082 v 1.379066 h 4.33622 v 1.970228 H 122.719 v -8.693263 z"
     style="fill:#00529b;stroke-width:0.301189"
     id="path1-0" />
</svg>
