<?xml version="1.0" encoding="UTF-8" standalone="no"?>
<svg
   role="img"
   viewBox="0 0 24 24"
   version="1.1"
   id="svg1"
   sodipodi:docname="openshift.svg"
   xml:space="preserve"
   inkscape:version="1.3 (0e150ed6c4, 2023-07-21)"
   xmlns:inkscape="http://www.inkscape.org/namespaces/inkscape"
   xmlns:sodipodi="http://sodipodi.sourceforge.net/DTD/sodipodi-0.dtd"
   xmlns="http://www.w3.org/2000/svg"
   xmlns:svg="http://www.w3.org/2000/svg"><defs
     id="defs1" /><sodipodi:namedview
     id="namedview1"
     pagecolor="#ffffff"
     bordercolor="#000000"
     borderopacity="0.25"
     inkscape:showpageshadow="2"
     inkscape:pageopacity="0.0"
     inkscape:pagecheckerboard="0"
     inkscape:deskcolor="#d1d1d1"
     inkscape:zoom="34.559844"
     inkscape:cx="6.6117197"
     inkscape:cy="15.523797"
     inkscape:window-width="2560"
     inkscape:window-height="1369"
     inkscape:window-x="-8"
     inkscape:window-y="-8"
     inkscape:window-maximized="1"
     inkscape:current-layer="g3052" /><title
     id="title1">Prisma</title><style
     type="text/css"
     id="style1">&#10;	.Arched_x0020_Green{fill:url(#SVGID_1_);stroke:#FFFFFF;stroke-width:0.25;stroke-miterlimit:1;}&#10;</style><g
     id="g3052"
     transform="matrix(0.03380028,0,0,0.03380028,-0.36977263,-5.8373997)"><g
       id="g1"
       transform="matrix(11.454231,0,0,11.454231,35.98079,173.97779)"><path
         d="m 54.22782,11.986615 c -0.5725,-1.1825 -1.235,-2.3237504 -2.00375,-3.4000004 l -8.2125,2.9887504 c 0.955,0.9775 1.7575,2.07625 2.41375,3.25125 z m -36.30287,9.08338 -8.215,2.98875 c 0.105,1.3175 0.3325,2.61875 0.65125,3.89375 l 7.80375,-2.84125 c -0.25375,-1.32 -0.34375,-2.68 -0.24,-4.04125"
         id="path44560"
         style="fill-opacity:1;fill-rule:nonzero;stroke:none" /><path
         d="m 36.1562,9.6601146 c 1.70875,0.7975004 3.18875,1.8850004 4.4375,3.1600004 l 8.2125,-2.9887504 c -2.275,-3.1925 -5.37375,-5.86 -9.17,-7.63125 -11.74125,-5.475 -25.74875,-0.3775 -31.2225,11.3625004 -1.7725,3.79875 -2.43125,7.83375 -2.12125,11.74125 l 8.21375,-2.98875 c 0.13625,-1.78 0.57,-3.56375 1.36625,-5.27375 C 19.42995,9.4138646 28.5287,6.1038646 36.1562,9.6601146"
         id="path44564"
         style="fill-opacity:1;fill-rule:nonzero;stroke:none" /><path
         d="m 44.91582,24.668245 c -0.13125,1.77875 -0.58,3.5625 -1.37875,5.27375 -3.55625,7.62875 -12.65625,10.93875 -20.2825,7.3825 -1.71125,-0.79875 -3.2025,-1.8775 -4.44625,-3.155 l -8.19625,2.9825 c 2.27,3.1925 5.365,5.86125 9.16375,7.63375 11.74125,5.47375 25.74625,0.37625 31.22125,-11.365 1.77375,-3.79625 2.4275,-7.83125 2.115,-11.735 z"
         id="path44572"
         style="fill-opacity:1;fill-rule:nonzero;stroke:none" /><path
         d="m 46.93545,14.641115 -7.80375,2.84 c 1.45,2.5975 2.135,5.5875 1.91,8.595 l 8.19625,-2.98125 c -0.235,-2.94125 -1.01875,-5.8125 -2.3025,-8.45375 m -36.06275,13.124 -7.80375,2.8425 c 0.71625,2.845 1.96,5.54875 3.67,7.955 l 8.195,-2.98375 c -2.10375,-2.16 -3.5025,-4.89375 -4.06125,-7.81375"
         id="path44576"
         style="fill-opacity:1;fill-rule:nonzero;stroke:none" /><path
         d="m 53.03832,9.8229946 c -0.25875,-0.42 -0.5275,-0.83375 -0.81375,-1.23625 l -8.2125,2.9887504 c 0.36125,0.37 0.69375,0.7625 1.01125,1.165 z M 17.89357,22.719365 c -0.02,-0.5475 -0.0113,-1.0975 0.0312,-1.64875 l -8.215,2.98875 c 0.0425,0.52625 0.10875,1.04875 0.1875,1.57 l 7.99625,-2.91 z"
         id="path44584"
         style="fill-opacity:1;fill-rule:nonzero;stroke:none" /><path
         d="m 53.11157,21.685615 -8.19625,2.9825 c -0.0863,1.18 -0.31625,2.3625 -0.6925,3.525 l 8.92125,-3.2525 c 0.0638,-1.09 0.0537,-2.1775 -0.0325,-3.255 m -42.49875,15.4675 c 0.63125,0.88875 1.33,1.73625 2.08875,2.53625 l 8.9225,-3.25375 c -1.0425,-0.6525 -1.985,-1.41375 -2.81625,-2.26625 z"
         id="path44588"
         style="fill-opacity:1;fill-rule:nonzero;stroke:none" /><path
         d="m 52.68932,54.532115 v 0.74 h 2.14625 v 6.55375 h 0.8125 v -6.55375 h 2.1475 v -0.74 z m -4.9285,0.73938 v 2.4175 h 2 v 0.74 h -2 v 3.39625 h -0.8125 v -7.2925 h 4.2825 v 0.73875 z m -3.71775,-0.7385 h 0.8125 v 7.29375 h -0.8125 z m -2.90425,7.29287 v -3.43875 h -3.62625 v 3.43875 h -0.8125 v -7.29375 h 0.8125 v 3.11625 h 3.62625 v -3.11625 h 0.8125 v 7.29375 z m -8.66675,0.11463 c -0.99,0 -1.87625,-0.4275 -2.44875,-1.01 l 0.5425,-0.605 c 0.55125,0.53125 1.1875,0.87625 1.9375,0.87625 0.96875,0 1.57375,-0.48 1.57375,-1.25125 0,-0.6775 -0.40625,-1.0625 -1.74,-1.5425 -1.57375,-0.5625 -2.105,-1.0725 -2.105,-2.125 0,-1.1675 0.91625,-1.86625 2.28125,-1.86625 0.98,0 1.605,0.2925 2.22,0.7825 l -0.52125,0.635 c -0.53125,-0.4375 -1.02125,-0.6775 -1.75,-0.6775 -1.00125,0 -1.4175,0.5 -1.4175,1.07375 0,0.605 0.27125,0.9475 1.73,1.47 1.615,0.5825 2.115,1.125 2.115,2.20875 0,1.14625 -0.89625,2.03125 -2.4175,2.03125 m -5.7415,-0.11463 -2.6775,-3.98 c -0.1775,-0.27125 -0.4175,-0.63625 -0.51125,-0.82375 0,0.27125 0.0212,1.1875 0.0212,1.59375 v 3.21 h -1.43875 v -7.29375 h 1.39625 l 2.585,3.855 c 0.1775,0.27125 0.41625,0.63625 0.51,0.82375 0,-0.27125 -0.02,-1.1875 -0.02,-1.595 v -3.08375 h 1.4375 v 7.29375 h -1.3025 z m -11.50112,0 v -7.29375 h 5.06375 v 1.4275 h -3.605 v 1.26125 h 2.095 v 1.41625 h -2.095 v 1.76125 h 3.76125 v 1.4275 z m -4.14475,-2.58362 h -1.605 v 2.58375 H 8.02095 v -7.29375 h 3.18875 c 1.375,0 2.51125,0.76125 2.51125,2.3125 0,1.68875 -1.125,2.3975 -2.63625,2.3975 m 0.0738,-3.2925 H 9.47975 v 1.875 h 1.69875 c 0.6775,0 1.0425,-0.31375 1.0425,-0.94875 0,-0.635 -0.4175,-0.92625 -1.0625,-0.92625 M 3.21,61.940495 c -1.9075,0 -3.21,-1.39625 -3.21,-3.75125 0,-2.355 1.32375,-3.7725 3.23125,-3.7725 1.89625,0 3.19875,1.3975 3.19875,3.7525 0,2.355 -1.32375,3.77125 -3.22,3.77125 m -0.01,-6.075 c -1.02125,0 -1.69875,0.82375 -1.69875,2.30375 0,1.48 0.70875,2.3225 1.73,2.3225 1.02125,0 1.6975,-0.8225 1.6975,-2.3025 0,-1.48 -0.7075,-2.32375 -1.72875,-2.32375"
         id="path44622"
         style="fill-opacity:1;fill-rule:nonzero;stroke:none" /></g></g></svg>
