<?xml version="1.0" standalone="no"?>
<!DOCTYPE svg PUBLIC "-//W3C//DTD SVG 20010904//EN"
 "http://www.w3.org/TR/2001/REC-SVG-20010904/DTD/svg10.dtd">
<svg version="1.0" xmlns="http://www.w3.org/2000/svg"
 width="434.000000pt" height="433.000000pt" viewBox="0 0 434.000000 433.000000"
 preserveAspectRatio="xMidYMid meet">

<g transform="translate(0.000000,433.000000) scale(0.100000,-0.100000)"
fill="#000000" stroke="none">
<path d="M1940 4313 c-114 -12 -328 -59 -450 -99 -688 -226 -1231 -802 -1409
-1496 -56 -218 -65 -293 -65 -548 -1 -263 11 -363 69 -576 230 -837 940 -1456
1803 -1569 233 -31 551 -15 777 40 399 95 733 282 1026 574 345 344 549 757
620 1256 17 115 17 412 0 535 -96 718 -524 1330 -1158 1656 -314 161 -633 235
-993 232 -102 -1 -201 -3 -220 -5z m73 -129 c14 -14 28 -38 31 -52 10 -48 37
-286 38 -330 2 -78 -34 -112 -118 -112 -55 0 -79 12 -98 48 -17 34 -59 365
-50 395 16 52 54 75 125 76 37 1 52 -4 72 -25z m306 15 c41 -15 51 -35 51
-108 0 -48 -5 -65 -23 -87 l-23 -27 23 -23 c22 -22 23 -30 21 -139 l-2 -115
-34 0 c-67 0 -72 9 -72 125 0 105 -12 146 -24 77 -3 -20 -6 -72 -6 -114 l0
-78 -50 0 -50 0 0 153 c0 83 3 196 7 250 l6 97 72 0 c40 0 86 -5 104 -11z
m338 -42 c2 -3 -7 -74 -20 -158 -14 -85 -24 -155 -23 -156 1 -1 31 63 66 143
36 79 68 144 73 144 21 0 127 -34 127 -41 0 -7 -131 -472 -134 -476 -5 -6 -86
23 -86 32 0 5 16 66 35 134 19 69 34 126 32 128 -2 1 -31 -55 -64 -126 l-61
-129 -41 10 c-48 12 -47 2 -26 183 8 71 13 130 12 132 -2 1 -20 -61 -41 -138
-21 -77 -41 -141 -45 -143 -15 -8 -71 16 -71 30 0 14 59 232 111 406 l19 66
67 -18 c36 -11 67 -21 70 -23z m-938 -27 c9 -28 8 -32 -15 -40 -14 -6 -32 -10
-40 -10 -17 0 -17 -8 -3 -66 12 -48 12 -48 80 -28 11 3 19 -3 23 -18 12 -46 7
-57 -29 -64 -19 -3 -35 -11 -35 -18 0 -6 13 -58 30 -115 16 -58 28 -106 26
-109 -2 -2 -24 -10 -49 -17 l-46 -14 -15 52 c-48 166 -116 415 -116 424 0 11
121 51 157 52 15 1 24 -8 32 -29z m-265 -79 c16 -31 11 -41 -26 -54 -15 -5 -5
-32 68 -193 46 -103 84 -192 84 -199 0 -7 -12 -18 -27 -23 -16 -5 -35 -13 -44
-17 -13 -5 -33 31 -104 189 l-88 195 -28 -15 c-28 -14 -29 -13 -45 17 -8 17
-12 35 -7 39 9 9 183 88 195 89 4 1 14 -12 22 -28z m-238 -234 c50 -62 122
-149 159 -195 75 -91 74 -84 4 -126 -25 -15 -26 -14 -62 34 -59 79 -102 59
-53 -24 14 -25 26 -49 26 -55 0 -11 -57 -51 -71 -51 -4 0 -25 42 -47 93 -22
50 -68 154 -100 229 l-60 136 51 36 c29 19 54 35 57 35 3 0 46 -50 96 -112z
m2044 91 c52 -36 73 -70 65 -106 -9 -42 -178 -304 -216 -337 -39 -32 -76 -32
-125 1 -89 61 -86 87 37 280 51 80 104 154 117 165 33 25 82 24 122 -3z m233
-180 l48 -43 -58 -95 c-32 -52 -62 -102 -67 -110 -9 -17 42 39 106 117 24 29
48 52 54 53 6 0 21 -11 34 -25 20 -21 21 -27 9 -41 -94 -115 -303 -349 -311
-349 -13 0 -87 57 -88 67 0 4 36 68 79 143 44 74 78 135 76 135 -1 0 -47 -52
-101 -115 -53 -63 -101 -115 -105 -115 -4 0 -20 11 -36 24 l-27 24 119 137
c66 76 138 159 160 186 22 26 45 48 50 48 6 1 32 -18 58 -41z m-2544 -183 c73
-85 136 -155 138 -155 2 0 19 11 38 25 l33 26 23 -32 23 -32 -40 -34 c-93 -81
-104 -87 -117 -70 -7 8 -78 91 -159 185 -82 93 -148 174 -148 178 0 9 60 63
70 64 3 0 65 -70 139 -155z m832 -22 c15 -38 18 -125 5 -138 -6 -6 -37 -23
-69 -38 -31 -14 -60 -33 -63 -42 -9 -23 -64 -18 -105 9 -35 24 -69 78 -69 110
0 17 46 43 165 92 100 42 122 43 136 7z m558 -29 c34 -25 61 -50 61 -55 0 -5
6 -9 14 -9 7 0 19 -7 26 -15 7 -9 28 -23 46 -31 19 -9 34 -20 34 -25 0 -5 9
-9 20 -9 11 0 23 -7 27 -16 3 -9 13 -14 23 -11 10 2 23 1 29 -3 7 -3 -5 -7
-26 -8 -21 -1 -69 -8 -107 -16 -38 -8 -73 -13 -77 -10 -4 2 -20 -1 -35 -6 -22
-9 -25 -8 -16 3 6 7 7 18 3 26 -6 9 -10 6 -14 -11 -7 -27 -36 -32 -177 -31
-178 3 -187 4 -160 14 19 6 13 7 -25 4 -27 -3 -86 2 -130 11 -44 8 -88 15 -97
15 -22 0 -23 18 -2 26 9 3 20 0 25 -8 7 -11 9 -11 9 3 0 18 33 42 44 31 3 -3
6 -1 6 5 0 7 5 12 10 12 12 0 14 2 75 55 27 23 46 33 60 29 14 -4 16 -3 7 4
-10 7 -3 17 29 41 42 30 46 31 150 31 l107 0 61 -46z m51 36 c0 -5 -4 -10 -10
-10 -5 0 -10 5 -10 10 0 6 5 10 10 10 6 0 10 -4 10 -10z m-1639 -61 c105 -78
116 -102 79 -172 -11 -20 -20 -38 -20 -40 0 -1 32 -27 70 -57 39 -30 70 -59
70 -65 0 -5 -13 -25 -29 -44 l-28 -35 -189 149 c-104 82 -193 152 -198 156
-11 10 80 126 114 144 41 23 59 18 131 -36z m1209 31 c0 -5 -5 -10 -11 -10 -5
0 -7 5 -4 10 3 6 8 10 11 10 2 0 4 -4 4 -10z m1819 -71 c51 -68 52 -71 35 -90
-23 -26 -38 -24 -66 10 l-24 28 -25 -20 c-13 -10 -32 -25 -43 -32 -18 -13 -18
-14 3 -43 27 -39 26 -46 -5 -67 -26 -17 -26 -16 -53 15 l-26 32 -60 -48 c-33
-26 -62 -49 -64 -50 -2 -2 9 -18 24 -36 l27 -32 -28 -23 c-16 -13 -31 -23 -35
-23 -3 0 -29 32 -59 71 -47 61 -52 72 -39 85 33 32 365 292 374 293 6 0 34
-31 64 -70z m-1904 45 c-9 -9 -19 -13 -23 -10 -3 4 0 11 8 16 24 15 33 11 15
-6z m745 -38 c0 -3 -4 -8 -10 -11 -5 -3 -10 -1 -10 4 0 6 5 11 10 11 6 0 10
-2 10 -4z m-1200 -126 c0 -5 -4 -10 -10 -10 -5 0 -10 5 -10 10 0 6 5 10 10 10
6 0 10 -4 10 -10z m25 -10 c3 -5 1 -10 -4 -10 -6 0 -11 5 -11 10 0 6 2 10 4
10 3 0 8 -4 11 -10z m1595 0 c0 -5 -4 -10 -10 -10 -5 0 -10 5 -10 10 0 6 5 10
10 10 6 0 10 -4 10 -10z m-1124 -30 c201 -25 297 -25 508 0 171 21 246 19 266
-5 6 -7 10 -40 8 -72 -3 -49 -6 -60 -25 -68 -13 -5 -23 -13 -23 -18 0 -5 -7
-15 -15 -23 -13 -14 -15 -13 -15 4 0 10 3 22 7 26 4 3 7 14 8 24 1 9 5 32 9
50 7 30 6 32 -19 32 -14 0 -28 -7 -30 -15 -16 -52 -16 -51 -31 -23 -14 27 -15
27 -97 21 -45 -3 -85 -11 -89 -17 -6 -8 -8 -8 -8 0 0 21 -51 2 -65 -25 l-14
-26 -1 28 c0 23 -4 27 -30 27 -23 0 -30 -4 -30 -20 l0 -20 -20 20 c-23 23 -87
27 -113 8 -9 -8 -18 -32 -20 -58 -3 -42 -4 -41 -5 13 l-2 57 -38 0 c-36 0 -40
-3 -52 -41 -8 -22 -17 -42 -21 -45 -4 -2 -13 18 -20 45 -12 47 -14 49 -51 53
-32 3 -38 1 -38 -16 0 -17 -3 -16 -25 8 -44 47 -110 31 -130 -32 -3 -12 -11
-19 -17 -16 -7 4 -8 2 -4 -5 4 -6 11 -9 16 -6 4 3 10 -4 13 -15 9 -34 -10 -32
-37 3 -19 25 -26 46 -26 79 0 65 18 82 96 87 11 0 92 -8 180 -19z m-556 -57
c0 -7 18 -51 39 -98 26 -55 36 -87 29 -91 -16 -10 -37 23 -54 86 -16 60 -48
125 -61 125 -4 0 -13 -22 -20 -48 -13 -52 -57 -173 -73 -197 -20 -33 -18 0 5
61 55 146 79 198 94 202 17 4 41 -19 41 -40z m1540 16 c0 -5 -13 -9 -30 -9
-28 0 -38 9 -25 22 8 8 55 -3 55 -13z m-1640 -14 c-7 -8 -18 -15 -26 -15 -12
0 -23 -30 -39 -107 -4 -18 -10 -35 -14 -38 -5 -2 -2 21 5 53 17 69 18 90 4 76
-5 -5 -19 -48 -31 -94 -22 -89 -30 -107 -48 -96 -7 5 -5 19 8 44 10 20 21 51
25 67 4 17 9 38 12 48 4 12 0 17 -12 17 -28 0 -5 16 61 43 64 26 75 26 55 2z
m1120 -112 c-1 -38 1 -79 4 -93 6 -23 -4 -4 -36 66 -11 23 8 94 25 94 4 0 8
-30 7 -67z m-600 41 c0 -14 -3 -14 -15 -4 -8 7 -15 14 -15 16 0 2 7 4 15 4 8
0 15 -7 15 -16z m747 -2 c7 -13 8 -23 1 -33 -7 -11 -11 -11 -15 -1 -2 6 -20
12 -39 12 -45 0 -47 27 -1 33 17 2 34 5 37 5 3 1 10 -6 17 -16z m-357 -56 c0
-55 -15 -81 -31 -55 -10 16 -12 93 -2 102 3 4 12 7 20 7 9 0 13 -16 13 -54z
m67 -8 c-2 -13 -4 -3 -4 22 0 25 2 35 4 23 2 -13 2 -33 0 -45z m-677 43 c0 -5
-7 -11 -14 -14 -10 -4 -13 -1 -9 9 6 15 23 19 23 5z m280 -18 c0 -18 -3 -23
-8 -15 -5 6 -17 19 -28 27 -18 14 -18 14 9 15 23 0 27 -4 27 -27z m-774 -42
c-24 -47 -46 -66 -46 -40 0 24 57 105 67 95 3 -2 -7 -27 -21 -55z m1494 -7 c0
-23 -5 -33 -20 -37 -22 -6 -28 8 -7 16 6 3 -12 6 -40 6 -29 1 -53 5 -53 10 0
10 24 21 46 21 8 0 25 9 36 20 26 24 38 12 38 -36z m-795 5 c-4 -5 -11 -9 -17
-9 -6 0 -8 3 -5 7 4 3 1 13 -6 21 -10 13 -9 14 11 3 12 -7 20 -16 17 -22z
m1355 -56 c-18 -32 -20 -34 -15 -11 3 15 10 40 17 55 8 21 12 24 15 11 2 -9
-5 -34 -17 -55z m-1845 20 c-6 -34 -25 -70 -25 -49 0 15 23 86 28 86 2 0 1
-17 -3 -37z m563 2 c-1 -19 -5 -32 -9 -27 -7 7 -1 62 7 62 3 0 4 -16 2 -35z
m172 7 c0 -19 -5 -29 -15 -29 -9 0 -13 5 -10 11 3 6 8 19 11 29 9 25 14 21 14
-11z m-87 -33 c3 -9 20 -27 39 -40 30 -21 31 -21 15 -2 -11 13 -14 23 -8 27 5
4 15 -2 21 -11 11 -17 11 -17 6 0 -3 9 -1 17 4 17 6 0 10 -5 10 -11 0 -5 4 -8
9 -5 5 4 12 0 15 -6 4 -9 10 -6 22 10 18 25 34 29 34 9 0 -9 17 -14 54 -16 47
-2 56 1 74 24 l21 26 3 -23 c3 -23 5 -23 108 -20 99 2 103 2 76 -13 -15 -8
-38 -13 -50 -11 -11 2 -15 1 -8 -1 7 -3 10 -9 7 -14 -4 -5 -93 -9 -201 -9
-155 0 -201 3 -224 15 -34 18 -59 61 -52 90 l5 20 8 -20 c4 -11 10 -27 12 -36z
m397 -10 c0 -5 -4 -9 -10 -9 -5 0 -10 7 -10 16 0 8 5 12 10 9 6 -3 10 -10 10
-16z m-1227 -14 c26 -8 82 -17 123 -21 63 -6 78 -11 90 -29 11 -17 31 -26 72
-33 31 -6 118 -22 192 -36 474 -87 759 -84 1280 15 136 26 169 36 185 54 16
18 35 24 91 29 39 4 92 13 119 21 60 18 60 18 79 -1 13 -12 14 -20 5 -36 -6
-11 -14 -16 -18 -11 -13 21 -38 20 -101 -4 -36 -13 -101 -30 -146 -38 -76 -12
-170 -46 -274 -98 -29 -14 -52 -36 -67 -62 -20 -35 -23 -52 -21 -140 3 -96 4
-100 26 -103 13 -2 33 3 45 11 12 8 48 17 79 21 32 4 61 12 64 18 5 7 -4 9
-28 4 -47 -9 -84 7 -103 43 -31 61 -12 127 48 168 18 12 100 44 182 71 83 27
169 59 192 71 23 11 57 21 75 21 l33 -1 -44 -39 c-24 -22 -48 -37 -55 -33 -6
3 -8 3 -5 -1 4 -4 -5 -19 -20 -34 -15 -15 -48 -66 -75 -115 -57 -106 -119
-169 -190 -196 -54 -20 -190 -51 -224 -51 -10 0 -24 -11 -30 -24 -9 -21 -21
-25 -94 -34 -136 -17 -411 -32 -598 -33 -96 0 -190 -2 -208 -4 -26 -2 -41 4
-67 27 -19 16 -37 38 -40 49 -4 11 -15 19 -29 19 -12 0 -26 3 -29 6 -4 4 -21
8 -39 9 -86 6 -160 32 -226 79 -40 28 -79 82 -155 218 -15 25 -48 62 -75 81
-56 41 -95 81 -70 72 9 -4 19 -2 23 4 4 7 21 3 48 -12 23 -13 107 -45 187 -71
174 -57 206 -72 242 -111 35 -39 39 -109 7 -149 -18 -23 -28 -26 -77 -26 -45
0 -53 -3 -44 -12 7 -7 35 -13 62 -14 32 0 56 -6 69 -18 11 -10 31 -16 48 -14
l28 3 3 104 c3 97 1 106 -23 143 -18 26 -43 46 -80 63 -30 14 -80 36 -110 50
-31 14 -97 32 -147 41 -50 9 -113 24 -140 35 -56 22 -104 25 -110 7 -3 -8 -9
-5 -16 9 -10 17 -9 25 4 37 19 19 17 19 77 1z m807 3 c0 -11 -12 -10 -30 2
-12 7 -10 9 8 7 12 0 22 -5 22 -9z m-280 -29 c0 -5 4 -8 9 -5 5 3 14 -1 21 -9
7 -8 18 -15 24 -15 6 0 4 5 -4 10 -19 13 -18 12 70 -4 41 -8 111 -15 154 -15
44 -1 83 -4 87 -7 7 -4 374 -4 454 0 22 2 60 6 85 9 25 4 63 9 85 12 60 7 99
17 112 28 8 5 39 7 76 3 80 -9 101 -21 50 -29 -57 -10 -75 -9 -67 5 4 7 3 8
-5 4 -6 -4 -9 -11 -6 -15 4 -7 -141 -35 -241 -46 -22 -3 -68 -9 -104 -14 -70
-10 -489 -8 -530 3 -14 4 -45 9 -70 11 -83 7 -185 27 -207 41 -17 10 -23 11
-26 1 -4 -8 -8 -9 -14 -1 -4 6 -18 10 -30 9 -13 -1 -23 2 -23 7 0 5 -10 6 -22
3 -16 -5 -20 -4 -13 3 17 18 135 28 135 11z m-684 -146 c-30 -59 -55 -101 -56
-93 0 20 104 224 108 212 2 -6 -22 -59 -52 -119z m2460 87 c-1 -22 1 -40 6
-40 4 0 8 -5 8 -12 0 -6 -3 -9 -6 -6 -3 4 -17 0 -32 -8 -14 -7 -28 -11 -30 -9
-6 6 41 115 49 115 4 0 6 -18 5 -40z m-2911 -30 l25 -50 52 0 52 0 -38 -39
-38 -39 15 -51 c17 -58 11 -62 -41 -31 -41 25 -47 25 -86 -5 -46 -35 -56 -33
-45 13 14 59 11 66 -31 98 -46 34 -50 44 -16 44 67 0 85 10 101 61 9 27 18 49
21 49 2 0 15 -22 29 -50z m3415 -3 c13 -41 39 -57 91 -57 35 0 37 -12 7 -34
-60 -41 -59 -40 -48 -91 6 -26 8 -50 6 -53 -3 -3 -24 8 -47 23 l-42 27 -45
-21 c-24 -12 -46 -20 -49 -18 -2 2 2 25 9 51 l12 46 -39 40 -39 40 55 0 56 0
23 50 c26 55 31 54 50 -3z m-2897 -148 c-36 -72 -67 -129 -69 -126 -7 6 120
265 128 261 3 -2 -23 -63 -59 -135z m2365 44 c-3 -34 -1 -38 19 -36 14 2 20
-2 17 -10 -6 -16 -73 -62 -80 -55 -5 6 37 138 44 138 2 0 2 -17 0 -37z m-2253
-28 c-14 -30 -43 -90 -65 -134 -22 -44 -58 -127 -81 -183 -36 -92 -144 -308
-154 -308 -4 0 76 178 187 415 47 99 93 199 103 223 10 23 22 42 26 42 5 0 -3
-25 -16 -55z m15 -205 c-17 -56 -33 -100 -36 -97 -3 3 10 50 27 106 18 55 35
98 37 96 2 -2 -10 -49 -28 -105z m2252 35 c-7 -26 -29 -48 -41 -41 -5 3 -12
-1 -15 -10 -4 -9 -9 -14 -12 -12 -3 3 7 28 22 55 21 37 31 47 40 39 6 -6 9
-20 6 -31z m-2173 -69 c-6 -21 -12 -36 -14 -34 -3 2 0 21 6 42 6 21 12 36 14
34 3 -2 0 -21 -6 -42z m1841 40 c0 -2 -7 -7 -16 -10 -8 -3 -12 -2 -9 4 6 10
25 14 25 6z m21 -39 c-13 -34 -61 -110 -67 -105 -2 2 12 35 32 72 35 66 54 84
35 33z m-113 -28 c-2 -6 -8 -10 -13 -10 -5 0 -11 4 -13 10 -2 6 4 11 13 11 9
0 15 -5 13 -11z m98 -50 c-15 -22 -30 -38 -33 -36 -3 3 8 24 23 46 38 51 45
44 10 -10z m-1561 21 c10 -11 40 -34 67 -51 40 -26 48 -36 44 -53 -3 -12 -11
-57 -17 -101 -7 -44 -16 -84 -20 -89 -17 -19 -119 244 -119 304 0 17 26 11 45
-10z m1855 -10 c-6 -11 -8 -25 -5 -31 12 -18 -69 -124 -86 -113 -4 2 -10 0
-14 -6 -3 -5 -11 -10 -18 -10 -6 0 3 15 20 33 17 17 47 58 67 90 34 54 59 80
36 37z m480 -16 l0 -26 165 7 165 7 0 -36 c0 -21 -6 -38 -12 -41 -7 -2 -79 -7
-160 -10 -145 -7 -148 -7 -148 -30 0 -17 -7 -24 -27 -28 -16 -3 -31 0 -35 6
-4 7 -8 47 -8 89 0 65 3 77 18 81 36 10 42 7 42 -19z m-2555 -31 c-16 -121
-71 -257 -130 -322 -20 -22 -41 -41 -46 -41 -4 0 6 30 24 68 25 54 31 81 32
141 1 61 4 75 21 83 33 18 72 59 84 89 18 42 22 36 15 -18z m-194 10 c-12 -20
-14 -14 -5 12 4 9 9 14 11 11 3 -2 0 -13 -6 -23z m-501 -43 c0 -39 -1 -40 -34
-40 -19 0 -38 -4 -41 -10 -4 -6 10 -10 34 -10 39 0 41 -2 41 -29 0 -28 -2 -30
-57 -38 l-58 -8 55 -5 55 -5 3 -37 c4 -46 18 -45 -213 -15 l-170 23 -3 37 c-3
35 -2 37 27 37 16 0 38 3 48 8 13 5 6 8 -27 12 -43 5 -45 6 -48 41 l-3 36 118
13 c65 6 145 15 178 20 100 13 95 15 95 -30z m3010 30 c0 -5 -2 -10 -4 -10 -3
0 -8 5 -11 10 -3 6 -1 10 4 10 6 0 11 -4 11 -10z m-1907 -30 c7 0 23 -9 36
-19 19 -14 31 -17 60 -10 66 16 78 12 77 -20 -1 -16 -5 -33 -9 -37 -4 -4 -7
-18 -7 -31 0 -53 -34 -80 -60 -48 -7 9 -15 13 -18 11 -8 -8 -61 33 -74 57 -6
12 -12 33 -13 47 -2 14 -5 36 -7 50 -3 14 -3 19 -1 13 3 -7 10 -13 16 -13z
m1678 -3 c-5 -14 -15 -28 -21 -32 -5 -3 -3 10 7 29 19 40 29 42 14 3z m-2310
-28 c-11 -24 -20 -41 -20 -37 -1 12 31 89 35 85 3 -2 -4 -24 -15 -48z m1609
35 c0 -24 -49 -58 -82 -58 -15 1 -25 -2 -22 -7 2 -4 12 -6 22 -3 9 2 0 -4 -21
-14 -20 -10 -34 -22 -30 -26 5 -4 1 -6 -7 -4 -23 5 -39 30 -40 60 0 16 -9 34
-22 43 -22 17 -21 17 32 13 30 -3 69 -1 85 3 55 13 85 10 85 -7z m-251 -40
c12 -11 -19 -16 -145 -21 -149 -6 -334 3 -334 18 0 4 42 10 93 12 97 4 379 -3
386 -9z m386 -4 c-3 -5 -10 -10 -16 -10 -5 0 -9 5 -9 10 0 6 7 10 16 10 8 0
12 -4 9 -10z m239 -29 c3 -5 -1 -11 -9 -14 -9 -4 -12 -1 -8 9 6 16 10 17 17 5z
m-354 -15 c0 -8 4 -16 8 -18 5 -1 23 -28 40 -59 18 -31 39 -62 47 -69 11 -9
15 -33 14 -94 -1 -108 -17 -148 -18 -44 -1 42 -6 89 -11 104 -15 37 -106 141
-132 150 -21 6 -21 7 3 25 29 22 49 24 49 5z m-770 -33 c21 -27 12 -47 -17
-36 -8 3 -13 -3 -13 -18 -1 -24 -1 -24 -15 3 -11 20 -12 34 -5 52 12 33 23 33
50 -1z m294 -21 c18 -7 41 -10 50 -6 9 3 16 2 16 -4 0 -6 -4 -12 -10 -14 -15
-5 0 -78 16 -78 21 0 17 -20 -3 -20 -22 -1 -57 -46 -49 -65 3 -8 1 -17 -5 -20
-5 -4 -12 1 -15 9 -7 18 -69 22 -79 6 -10 -17 -27 -11 -21 8 6 20 -26 62 -48
62 -9 0 -16 5 -16 10 0 6 6 10 14 10 15 0 29 73 14 78 -4 2 -8 8 -8 14 0 6 7
7 16 4 24 -9 71 14 80 39 7 20 7 20 11 -1 2 -12 17 -25 37 -32z m276 28 c6
-12 8 -30 5 -40 -4 -11 -2 -20 3 -20 6 0 18 -19 26 -42 9 -24 14 -33 12 -20
-6 30 2 28 46 -15 32 -31 38 -44 38 -78 0 -70 -9 -87 -39 -80 -41 10 -81 37
-99 67 -15 25 -15 28 1 45 9 10 17 39 19 63 3 41 1 45 -18 43 -17 -2 -21 2
-17 17 4 16 2 19 -11 14 -9 -3 -16 -1 -16 6 0 6 -5 8 -12 4 -7 -4 -8 -3 -4 5
4 6 12 8 18 5 7 -5 9 -2 5 8 -5 15 9 38 25 38 4 0 12 -9 18 -20z m-820 -41 c0
-5 -16 -26 -35 -47 -46 -51 -55 -79 -56 -170 -1 -100 -17 -67 -18 36 -1 70 1
77 41 137 26 40 46 61 55 58 7 -3 13 -9 13 -14z m2443 4 c54 -5 57 -7 57 -33
0 -26 -4 -29 -50 -39 -28 -6 -61 -12 -73 -13 -12 -1 10 -4 48 -7 67 -6 70 -7
73 -34 2 -17 -2 -29 -12 -33 -16 -6 -364 13 -376 21 -4 2 -5 18 -2 34 4 27 9
31 51 38 l46 8 -45 5 c-43 5 -45 7 -48 39 l-3 34 138 -7 c76 -4 164 -9 196
-13z m-2252 -37 c-15 -18 -4 -92 17 -112 12 -13 13 -19 2 -40 -15 -26 -61 -57
-102 -67 -31 -8 -38 4 -38 72 0 41 5 51 39 85 22 21 44 36 49 32 5 -3 13 5 16
19 4 14 11 25 17 25 8 0 8 -4 0 -14z m54 -22 c29 -7 22 -34 -9 -34 -20 0 -20
-1 3 -13 26 -13 40 -37 22 -37 -6 0 -11 6 -11 13 0 8 -3 8 -9 -2 -8 -13 -12
-13 -26 -1 -9 7 -14 22 -12 32 3 10 1 21 -4 24 -16 10 -10 37 7 30 9 -3 26 -9
39 -12z m585 1 c0 -24 -46 -41 -66 -24 -14 12 -13 14 17 25 45 17 49 16 49 -1z
m238 -35 c18 -23 25 -47 29 -104 3 -45 1 -76 -5 -80 -6 -4 -8 -22 -5 -41 5
-32 4 -35 -13 -28 -17 6 -17 5 -6 -10 12 -14 10 -19 -9 -39 -12 -13 -18 -16
-14 -8 5 8 -6 0 -24 -18 -19 -18 -36 -30 -39 -27 -3 3 -14 -3 -25 -12 -18 -17
-19 -17 -32 1 -10 13 -20 16 -37 11 -27 -9 -18 3 14 19 13 6 31 28 42 50 12
24 21 34 26 26 5 -8 9 -7 13 5 4 9 3 14 -2 11 -17 -11 -19 21 -5 74 8 30 14
66 14 80 0 40 11 70 26 70 8 0 14 5 14 11 0 5 -5 7 -11 4 -6 -4 -5 2 3 14 16
26 18 26 46 -9z m-1053 -7 c9 -24 20 -101 19 -140 0 -18 3 -30 8 -27 4 3 5 -2
2 -10 -3 -9 -1 -16 5 -16 6 0 11 -9 11 -21 0 -13 -4 -18 -12 -14 -7 4 -6 0 3
-7 12 -9 16 -27 14 -57 -2 -25 1 -38 6 -30 4 7 5 18 2 24 -4 5 5 -1 20 -13 23
-22 24 -25 10 -42 -9 -11 -23 -16 -32 -12 -24 9 -81 43 -81 49 0 2 5 1 10 -2
18 -11 11 1 -12 21 -12 10 -18 13 -14 7 10 -18 -9 -16 -24 2 -13 16 -25 119
-24 214 1 44 5 58 23 73 29 23 57 23 66 1z m270 7 c3 -5 -1 -10 -10 -10 -9 0
-13 5 -10 10 3 6 8 10 10 10 2 0 7 -4 10 -10z m470 0 c3 -5 -1 -10 -10 -10 -9
0 -13 5 -10 10 3 6 8 10 10 10 2 0 7 -4 10 -10z m65 -14 c0 -7 -7 -19 -16 -27
-13 -10 -17 -10 -25 2 -7 11 -9 10 -9 -5 0 -15 -3 -17 -11 -9 -14 14 -4 32 25
43 30 12 36 12 36 -4z m-1894 -40 c13 -55 10 -57 -189 -107 l-187 -47 0 23 c0
13 -3 30 -6 39 -4 10 2 17 20 22 33 8 34 34 2 34 -23 0 -36 16 -36 46 0 12 33
14 195 14 l195 0 6 -24z m3213 -33 c20 -5 22 -10 18 -39 -5 -30 -3 -34 16 -34
12 0 32 -3 44 -6 18 -5 23 -1 29 20 10 42 75 33 66 -9 -3 -20 1 -25 22 -30 14
-3 37 -7 51 -10 20 -4 25 -1 25 14 0 38 10 48 41 43 31 -4 31 -5 24 -51 -12
-85 -15 -91 -44 -90 -14 0 -98 13 -186 28 l-160 27 2 48 c2 57 10 96 21 96 4
0 18 -3 31 -7z m-1708 -63 l49 0 0 -113 c0 -75 -4 -119 -12 -130 -7 -10 -33
-21 -58 -26 l-45 -9 42 -1 c61 -1 73 -23 66 -120 -3 -42 -9 -80 -14 -85 -16
-18 -39 15 -37 55 2 53 -16 72 -62 64 -45 -8 -64 11 -63 62 1 25 -3 33 -12 29
-7 -2 -16 2 -19 10 -7 19 -36 18 -52 -3 -12 -17 -13 -17 -19 0 -5 12 5 36 32
75 64 92 93 147 93 177 0 26 2 27 31 21 17 -3 53 -6 80 -6z m269 -18 c0 -18
25 -67 66 -131 41 -66 63 -109 59 -120 -5 -14 -9 -13 -23 6 -12 16 -21 20 -32
13 -17 -10 -40 5 -40 26 0 8 -4 14 -10 14 -10 0 -18 -25 -22 -75 -2 -24 -9
-32 -38 -41 -26 -9 -36 -19 -42 -41 -4 -17 -15 -36 -24 -43 -13 -12 -14 -10
-7 16 10 36 10 73 0 101 -7 19 -3 23 35 32 l43 9 -52 -1 c-29 0 -56 2 -59 6
-3 3 -3 60 1 126 l7 120 57 4 c31 2 62 4 69 5 7 1 12 -9 12 -26z m-1746 -68
c10 -47 16 -87 14 -88 -2 -2 -15 -6 -30 -10 -24 -5 -28 -3 -34 19 -3 14 -7 25
-8 25 -2 0 -72 -16 -157 -34 -84 -19 -155 -33 -157 -32 -1 2 -5 19 -9 39 l-5
35 78 17 c239 52 229 49 227 78 -2 25 5 29 52 36 6 0 19 -38 29 -85z m1586
-13 c0 -82 -2 -90 -21 -96 -11 -4 -22 -5 -23 -3 -1 1 0 45 2 96 4 82 6 92 23
92 17 0 19 -8 19 -89z m-262 27 c-2 -6 -10 -14 -16 -16 -7 -2 -10 2 -6 12 7
18 28 22 22 4z m511 -29 c-11 -7 -10 -9 4 -9 10 0 15 -4 12 -10 -3 -5 -1 -10
5 -10 7 0 10 -6 7 -13 -3 -8 7 -18 24 -26 19 -8 28 -19 26 -32 -5 -32 -15 -32
-35 0 -10 17 -22 28 -25 24 -4 -3 -7 -1 -7 5 0 7 -13 31 -30 54 -38 52 -38 63
1 42 25 -12 29 -18 18 -25z m-536 -15 c-3 -8 -9 -14 -14 -14 -5 0 -9 -5 -9
-12 0 -7 -12 -29 -26 -49 -18 -27 -30 -35 -45 -32 -28 8 -23 38 9 53 15 7 31
13 35 11 5 -1 6 3 3 8 -3 5 1 23 10 40 12 25 19 29 29 21 8 -6 11 -18 8 -26z
m2002 -58 c88 -37 163 -70 167 -74 11 -11 -11 -82 -25 -82 -31 0 -363 53 -370
59 -9 9 11 71 23 71 5 0 32 -5 60 -11 72 -15 72 -6 0 20 -57 21 -60 24 -54 49
9 37 14 44 28 39 6 -3 83 -35 171 -71z m-3251 -99 c20 -58 20 -59 1 -73 -29
-21 -43 -17 -50 16 -6 26 -10 30 -28 24 -63 -20 -68 -23 -61 -49 5 -21 1 -26
-22 -35 -28 -11 -43 -1 -44 28 0 15 3 15 -54 -4 -26 -9 -45 -21 -43 -28 19
-51 18 -54 -13 -61 -17 -4 -33 -5 -34 -3 -2 1 -12 31 -24 65 l-20 62 41 16
c110 41 303 104 316 102 8 -1 23 -28 35 -60z m1206 -79 c0 -15 5 -30 10 -33 6
-3 10 2 10 12 0 14 2 15 9 4 9 -14 -6 -51 -20 -51 -4 0 -17 11 -30 24 -27 28
-39 25 -39 -10 0 -38 -26 -29 -54 19 -21 35 -23 43 -10 45 8 2 26 -4 39 -12
28 -18 29 -16 16 34 -26 99 -25 100 24 45 30 -33 45 -58 45 -77z m674 53 c-14
-60 -12 -90 4 -64 4 6 20 15 35 18 l27 7 -22 -43 c-13 -24 -31 -45 -40 -47
-22 -4 -58 52 -51 79 4 15 2 18 -11 13 -9 -3 -16 -2 -16 2 0 11 81 106 86 102
2 -2 -3 -32 -12 -67z m-167 37 c-3 -8 -6 -5 -6 6 -1 11 2 17 5 13 3 -3 4 -12
1 -19z m-606 -31 c9 -33 3 -38 -27 -25 -34 16 -48 0 -34 -37 6 -16 31 -57 55
-91 25 -35 45 -65 45 -68 0 -3 -8 -6 -17 -6 -15 0 -16 -2 -3 -10 8 -5 10 -10
4 -10 -40 0 -100 88 -110 163 -5 38 -3 47 17 66 12 11 26 21 31 21 4 0 8 7 8
16 0 24 23 11 31 -19z m640 19 c22 13 6 -25 -16 -40 -14 -9 -25 -12 -25 -6 0
6 10 15 23 20 12 5 16 9 10 9 -7 1 -13 9 -12 19 0 10 3 12 6 4 2 -6 9 -10 14
-6z m189 -1 c0 -8 5 -15 10 -15 22 0 50 -41 50 -72 0 -63 -76 -189 -95 -158
-5 8 -11 5 -21 -7 -13 -17 -13 -17 -14 1 0 11 18 43 41 73 74 99 86 163 24
135 -22 -10 -25 -9 -25 7 0 26 10 51 21 51 5 0 9 -7 9 -15z m-680 -16 c0 -6
-8 -18 -17 -27 -16 -16 -16 -16 -10 1 4 10 7 25 7 33 0 9 5 12 10 9 6 -3 10
-11 10 -16z m283 -14 c-3 -9 -8 -14 -10 -11 -3 3 -2 9 2 15 9 16 15 13 8 -4z
m247 -35 l0 -41 -22 20 c-21 20 -21 21 -3 41 10 11 20 20 22 20 1 0 3 -18 3
-40z m1260 30 c16 -9 18 -15 10 -36 -14 -35 -14 -33 27 -50 35 -15 37 -15 53
6 12 16 22 20 43 15 29 -8 32 -16 17 -45 -8 -15 -4 -20 30 -34 52 -21 55 -20
68 9 13 28 29 31 56 12 16 -12 16 -16 -5 -67 -12 -30 -25 -59 -29 -63 -4 -4
-85 23 -181 62 -193 77 -186 70 -150 154 21 49 29 54 61 37z m-1779 -19 c-6
-10 -7 -21 -4 -25 3 -3 1 -6 -5 -6 -16 0 -15 23 0 38 17 17 20 15 9 -7z m263
-31 c-2 -16 1 -32 6 -35 16 -10 12 -25 -5 -19 -20 8 -20 84 0 84 1 0 1 -13 -1
-30z m-40 -44 c-3 -21 -9 -35 -11 -32 -3 3 -2 21 1 42 4 20 10 34 12 31 3 -3
2 -21 -2 -41z m166 36 c0 -5 -7 -9 -15 -9 -8 0 -12 4 -9 9 3 4 9 8 15 8 5 0 9
-4 9 -8z m-1580 -115 c0 -16 -5 -37 -10 -48 -15 -26 -82 -59 -123 -59 -22 0
-41 -8 -53 -21 -18 -20 -133 -84 -139 -77 -8 10 -25 48 -25 57 0 6 21 22 48
35 76 39 93 59 22 26 -36 -16 -70 -30 -76 -30 -11 0 -40 57 -33 64 2 2 81 40
174 84 l170 80 22 -41 c12 -23 22 -55 23 -70z m1315 103 c3 -5 1 -10 -4 -10
-6 0 -11 5 -11 10 0 6 2 10 4 10 3 0 8 -4 11 -10z m173 -36 c-6 -21 -11 -43
-9 -48 1 -4 -2 -13 -6 -20 -5 -6 -8 -20 -8 -31 0 -15 7 -19 23 -18 12 2 22 -2
22 -7 0 -10 -15 -14 -35 -10 -5 1 1 -9 15 -22 16 -15 34 -22 51 -20 18 3 28
-2 33 -13 5 -15 4 -16 -9 -5 -9 7 -19 10 -22 6 -4 -4 -2 -10 5 -15 6 -4 14
-34 16 -67 3 -38 2 -52 -4 -39 -7 16 -9 14 -9 -15 -1 -40 12 -66 28 -56 6 4
11 2 11 -4 0 -7 -11 -9 -32 -5 -110 22 -123 18 -228 -81 l-69 -65 -17 26 c-13
20 -15 37 -9 83 4 31 8 66 9 77 2 11 -1 31 -5 45 l-7 25 -1 -25 c-2 -24 -2
-24 -13 -5 -13 22 -23 87 -10 68 4 -6 8 8 8 32 1 25 -2 42 -7 39 -5 -3 -9 2
-9 11 0 11 5 15 14 12 10 -4 14 0 11 14 -2 10 0 19 6 19 5 0 9 -8 10 -17 0
-10 3 -31 6 -48 2 -16 5 -38 6 -48 1 -17 2 -17 14 -1 8 11 13 13 13 5 0 -8 6
-11 15 -7 9 3 15 0 15 -8 0 -9 -8 -13 -22 -10 -13 2 -17 2 -10 -2 6 -3 10 -9
8 -13 -3 -4 0 -8 7 -8 7 0 20 -4 30 -8 10 -4 17 -3 17 4 0 6 7 11 15 11 9 0
25 8 35 18 17 16 18 22 8 55 -9 28 -8 43 1 63 10 22 9 29 -1 36 -9 7 -6 8 9 5
18 -4 23 1 28 25 5 23 10 27 20 18 11 -10 13 -8 10 9 -2 12 1 21 7 21 6 0 8
10 4 24 -4 15 -1 26 7 29 17 6 18 5 5 -39z m-301 14 c-3 -8 -6 -5 -6 6 -1 11
2 17 5 13 3 -3 4 -12 1 -19z m140 -35 c-3 -10 -5 -4 -5 12 0 17 2 24 5 18 2
-7 2 -21 0 -30z m417 -1 c3 -5 -1 -9 -9 -9 -8 0 -12 4 -9 9 3 4 7 8 9 8 2 0 6
-4 9 -8z m-544 -14 c0 -4 -7 -8 -15 -8 -8 0 -15 4 -15 8 0 5 7 9 15 9 8 0 15
-4 15 -9z m330 -28 c6 0 9 -3 7 -7 -3 -5 1 -14 9 -21 12 -11 17 -8 27 18 8 16
17 27 21 23 4 -4 4 0 0 10 -4 12 -1 17 11 17 12 0 16 -7 13 -27 -1 -16 -7 -31
-12 -34 -13 -10 2 -42 16 -33 8 5 9 2 5 -9 -3 -10 -2 -17 2 -17 5 0 11 7 15
15 9 24 23 17 29 -15 5 -20 11 -28 21 -24 16 6 29 46 18 54 -4 3 -8 19 -9 35
-1 17 1 24 4 18 7 -20 23 -15 16 5 -3 10 2 7 13 -7 12 -17 18 -43 18 -87 1
-49 4 -60 14 -52 9 8 12 6 12 -8 0 -16 2 -17 10 -4 7 12 9 10 7 -7 0 -12 -6
-21 -12 -20 -6 1 -9 -14 -7 -38 8 -98 6 -111 -23 -157 -25 -40 -89 -87 -101
-75 -7 7 -7 52 1 69 5 12 -5 29 -35 58 -37 37 -41 45 -35 73 17 85 17 94 -9
148 -14 30 -37 65 -51 77 -14 12 -25 32 -24 44 l0 23 9 -22 c5 -13 14 -23 20
-23z m260 5 c0 -5 -5 -3 -10 5 -5 8 -10 20 -10 25 0 6 5 3 10 -5 5 -8 10 -19
10 -25z m-630 1 c0 -13 -6 -26 -13 -29 -10 -4 -12 3 -9 24 5 35 22 39 22 5z
m87 -20 c-4 -9 -12 -16 -19 -15 -10 0 -10 2 1 6 11 5 11 7 0 14 -11 7 -11 9
-1 9 8 0 10 5 6 13 -5 9 -4 9 6 0 7 -6 10 -19 7 -27z m-48 -18 c7 1 5 -11 -6
-35 -18 -41 -22 -86 -11 -145 6 -36 6 -36 -37 -47 -61 -15 -62 -15 -59 22 2
17 1 23 -2 13 -5 -15 -8 -16 -15 -5 -6 10 -9 8 -10 -11 -1 -14 -1 -28 0 -32 0
-5 -4 -8 -9 -8 -19 0 -1 55 25 76 15 11 28 27 29 35 2 8 6 23 10 34 5 11 10
26 12 33 2 6 13 12 24 12 17 0 20 7 21 53 1 39 3 46 8 27 4 -14 13 -24 20 -22z
m1761 2 c22 -11 47 -31 56 -45 9 -14 26 -25 37 -25 20 0 147 -57 147 -66 0 -9
-31 -64 -36 -64 -2 0 -31 14 -64 30 -33 17 -63 30 -67 30 -8 -1 102 -66 121
-73 7 -2 -5 -28 -30 -66 -3 -3 -149 72 -281 146 l-63 35 21 39 c41 82 83 98
159 59z m-1803 -37 c-3 -10 -5 -4 -5 12 0 17 2 24 5 18 2 -7 2 -21 0 -30z
m230 5 c-3 -8 -6 -5 -6 6 -1 11 2 17 5 13 3 -3 4 -12 1 -19z m-72 -30 c-1 -13
-3 -29 -4 -35 0 -7 -6 -13 -11 -13 -7 0 -7 6 0 20 6 10 10 23 9 27 -2 11 0 23
5 23 2 0 2 -10 1 -22z m-1253 -10 c8 -13 24 -40 37 -60 l22 -37 -27 -17 c-25
-17 -27 -17 -40 0 -7 11 -15 24 -17 29 -3 9 -50 -13 -85 -39 -2 -1 2 -12 9
-25 10 -20 9 -25 -12 -42 -23 -19 -24 -19 -38 2 -7 12 -18 21 -23 21 -5 0 -37
-18 -71 -39 l-62 -40 -19 30 c-14 23 -16 33 -7 42 14 14 303 196 312 196 4 1
13 -9 21 -21z m1318 12 c0 -5 -5 -10 -11 -10 -5 0 -7 5 -4 10 3 6 8 10 11 10
2 0 4 -4 4 -10z m-272 -41 c-3 -8 -7 -3 -11 10 -4 17 -3 21 5 13 5 -5 8 -16 6
-23z m92 7 c0 -3 -4 -8 -10 -11 -5 -3 -10 -1 -10 4 0 6 5 11 10 11 6 0 10 -2
10 -4z m200 -36 c0 -5 -4 -10 -10 -10 -5 0 -10 5 -10 10 0 6 5 10 10 10 6 0
10 -4 10 -10z m183 -25 c-3 -9 -8 -14 -10 -11 -3 3 -2 9 2 15 9 16 15 13 8 -4z
m1273 -37 c63 -43 90 -87 76 -128 -10 -28 -8 -31 39 -65 27 -20 49 -40 49 -44
0 -12 -31 -51 -41 -51 -13 0 -309 210 -309 219 0 11 48 74 67 89 28 20 68 14
119 -20z m-1010 -34 c-3 -9 -6 -18 -6 -20 0 -2 -10 -4 -22 -4 -21 0 -21 0 -2
19 23 24 38 27 30 5z m-1665 -25 l22 -31 -137 -137 -137 -136 -25 29 c-23 26
-24 29 -9 47 22 24 11 43 -15 26 -17 -10 -23 -8 -42 11 -14 14 -19 25 -13 31
13 13 318 191 327 191 4 0 17 -14 29 -31z m1036 5 c4 -13 -165 -52 -232 -52
-48 -1 -49 -1 -20 10 42 16 217 56 234 55 8 -1 16 -7 18 -13z m667 -45 c69
-21 133 -56 122 -67 -4 -3 -16 4 -29 16 -14 14 -36 22 -58 22 -32 0 -119 33
-119 45 0 8 8 7 84 -16z m-492 -62 c-31 -32 -43 -55 -22 -42 6 3 10 1 10 -4 0
-6 17 -10 38 -10 l37 2 -35 6 -35 7 30 6 c17 4 45 6 63 4 17 -1 47 -3 66 -4
19 -1 42 -10 53 -19 10 -10 12 -14 3 -8 -10 6 -8 1 5 -15 11 -14 21 -27 22
-29 2 -2 1 22 -2 55 -3 46 -2 53 5 29 13 -42 23 -158 10 -125 -9 24 -9 24 -7
-6 1 -17 -5 -39 -12 -48 -9 -10 -10 -16 -2 -16 12 0 15 -39 3 -56 -45 -68
-309 -59 -335 10 -3 8 -8 35 -11 62 -4 37 -3 42 3 19 8 -27 9 -25 8 18 0 36 5
54 24 75 22 24 22 25 2 8 -13 -11 -23 -15 -23 -10 0 12 123 135 129 129 2 -3
-10 -20 -27 -38z m242 27 c3 -8 2 -12 -4 -9 -6 3 -10 10 -10 16 0 14 7 11 14
-7z m344 -31 c17 -19 22 -33 17 -52 -4 -21 -3 -23 5 -11 9 11 10 4 6 -30 -7
-61 -58 -110 -114 -110 -44 0 -82 29 -82 63 0 18 3 15 18 -13 15 -30 22 -35
58 -38 33 -2 48 2 73 23 17 15 31 31 31 35 0 5 -13 -5 -29 -21 -51 -50 -131
-34 -131 27 0 14 -4 23 -8 20 -4 -2 -14 -1 -22 5 -12 7 -12 9 4 9 13 0 16 5
12 16 -4 9 1 27 9 40 9 13 12 24 8 24 -5 0 -19 9 -33 20 l-25 20 30 -10 c16
-6 36 -16 45 -23 8 -6 12 -7 8 -3 -4 5 0 15 10 23 16 12 16 13 -2 6 -12 -4
-17 -3 -13 4 4 6 27 9 54 6 35 -4 54 -12 71 -30z m-1016 13 c10 -7 15 -16 11
-19 -3 -4 0 -13 6 -21 7 -8 9 -21 5 -27 -4 -7 -3 -9 4 -5 13 8 36 -30 28 -47
-2 -7 -5 -5 -5 5 -1 9 -4 19 -9 22 -4 2 -6 -13 -4 -35 6 -55 -11 -72 -65 -66
-23 2 -40 1 -37 -4 3 -5 22 -9 43 -9 40 0 65 19 74 55 4 15 5 14 6 -7 1 -34
-31 -58 -80 -58 -37 0 -65 20 -51 35 4 5 -1 5 -10 2 -27 -10 -48 30 -48 91 0
43 5 58 25 77 27 28 79 33 107 11z m-662 -50 c0 -6 -50 -59 -112 -117 l-113
-107 23 -24 c28 -31 28 -34 -4 -54 -25 -17 -26 -16 -70 27 -24 24 -44 48 -44
54 -1 5 61 69 137 142 l138 132 23 -21 c12 -12 22 -26 22 -32z m2425 -106
c134 -133 135 -134 116 -154 -19 -19 -20 -19 -83 18 l-63 38 50 -51 49 -51
-22 -22 -22 -23 -140 140 c-131 131 -138 140 -123 157 22 24 36 23 86 -8 l42
-26 -39 41 c-39 40 -39 41 -21 61 10 11 22 19 27 18 4 -2 69 -64 143 -138z
m-2315 5 l23 -24 -102 -125 -101 -124 28 -21 27 -20 -25 -25 -25 -25 -52 47
-53 47 122 148 c66 81 124 147 128 147 3 0 17 -11 30 -25z m2141 -161 l137
-137 -29 -25 c-28 -23 -31 -24 -49 -7 -26 23 -45 10 -26 -17 14 -19 13 -23
-10 -41 -14 -11 -29 -16 -33 -11 -15 17 -191 315 -191 324 0 8 49 49 60 50 3
0 66 -61 141 -136z m-232 -9 c37 -43 39 -68 7 -83 -21 -9 -26 -8 -31 8 -7 22
-33 45 -41 37 -8 -7 126 -227 138 -227 14 0 9 24 -11 49 -19 24 -19 25 5 44
24 19 25 19 44 -5 11 -12 25 -38 31 -57 10 -29 9 -37 -8 -60 -11 -14 -32 -30
-47 -35 -52 -19 -74 1 -154 132 -86 140 -93 171 -46 209 42 33 76 30 113 -12z
m-1523 -76 c40 -37 34 -62 -67 -275 -35 -76 -67 -94 -122 -71 -37 16 -57 42
-57 76 0 31 108 264 133 284 27 24 80 17 113 -14z m1308 -152 c70 -179 72
-213 15 -242 -74 -39 -103 -9 -174 173 -30 79 -55 147 -55 151 0 8 45 31 60
31 5 0 34 -66 66 -147 62 -161 61 -159 70 -150 4 3 -19 71 -50 151 -31 80 -56
150 -56 155 0 10 21 18 52 20 12 1 30 -35 72 -142z m-1185 106 c22 -6 23 -9
18 -67 l-5 -61 15 53 c16 52 17 54 46 48 17 -3 32 -8 34 -10 4 -3 -104 -356
-111 -363 -3 -3 -17 -2 -32 1 -27 7 -27 8 -22 79 l6 72 -20 -65 c-11 -36 -21
-66 -23 -68 -1 -2 -16 3 -33 10 l-30 13 56 183 c30 100 60 182 66 182 6 0 22
-3 35 -7z m924 -53 c21 -16 31 -43 56 -148 17 -70 31 -140 31 -155 0 -71 -115
-104 -154 -44 -8 12 -29 84 -47 159 -31 131 -32 138 -15 163 30 46 87 58 129
25z m-703 -19 c0 -9 -11 -77 -25 -151 -14 -74 -25 -140 -25 -147 0 -6 12 -13
28 -15 18 -2 28 -9 30 -23 5 -41 -9 -47 -81 -35 -37 7 -67 15 -67 18 0 9 61
356 65 368 5 18 75 4 75 -15z m-759 -10 l22 -18 -21 -36 c-23 -36 -40 -47 -73
-47 -12 0 -19 7 -19 20 0 14 7 20 21 20 18 0 19 3 10 14 -10 12 -9 20 4 40 21
31 26 32 56 7z m898 -46 l4 -50 11 45 c11 42 14 45 49 48 20 2 37 0 37 -4 0
-4 -16 -55 -35 -114 -20 -65 -37 -140 -41 -189 -7 -86 -9 -89 -62 -74 -23 6
-24 8 -18 82 5 53 1 112 -12 194 l-19 118 41 -3 41 -3 4 -50z m375 -27 c-5
-46 -8 -133 -8 -195 l2 -111 -32 -5 c-17 -2 -34 -3 -37 -1 -4 2 -10 36 -13 75
-5 43 -24 118 -47 182 -21 61 -39 114 -39 119 0 4 18 8 39 8 39 0 40 -1 54
-47 l15 -48 1 53 1 52 36 0 37 0 -9 -82z"/>
<path d="M1914 4113 c2 -10 13 -87 22 -171 10 -83 21 -158 25 -164 20 -32 21
15 5 150 -22 187 -25 202 -43 202 -9 0 -12 -7 -9 -17z"/>
<path d="M2240 4075 c0 -36 4 -65 9 -65 14 0 21 27 21 81 0 37 -4 49 -15 49
-12 0 -15 -14 -15 -65z"/>
<path d="M1162 3705 c18 -36 38 -65 45 -65 7 0 13 5 13 10 0 11 -79 120 -86
120 -2 0 11 -29 28 -65z"/>
<path d="M3113 3696 c-90 -139 -107 -172 -80 -164 12 5 197 284 197 299 0 33
-37 -10 -117 -135z"/>
<path d="M2066 3507 c3 -8 -3 -20 -12 -28 -10 -8 -15 -9 -11 -2 4 6 4 14 -1
17 -4 2 -18 -11 -31 -30 -19 -27 -27 -32 -37 -23 -11 9 -14 8 -14 -4 0 -21
-38 -47 -59 -40 -9 4 -13 3 -9 -2 4 -4 -9 -17 -30 -27 -57 -31 -59 -36 -19
-53 30 -12 45 -13 81 -4 54 13 123 70 142 116 16 38 18 79 4 88 -5 3 -7 0 -4
-8z"/>
<path d="M2260 3495 c0 -62 47 -133 112 -166 38 -19 115 -24 152 -10 16 6 11
12 -35 41 -53 33 -59 36 -79 39 -5 0 -10 8 -10 16 0 8 -7 15 -16 15 -9 0 -12
5 -8 13 6 9 4 9 -8 -1 -13 -10 -18 -10 -24 -1 -5 8 -3 10 7 5 8 -4 6 -1 -3 7
-10 8 -16 16 -13 18 2 3 -7 6 -21 7 -32 2 -46 11 -39 22 3 5 1 11 -5 15 -6 4
-10 -5 -10 -20z"/>
<path d="M1932 3424 c-7 -8 -8 -14 -3 -14 10 0 25 19 20 25 -2 1 -10 -3 -17
-11z"/>
<path d="M1988 3303 c7 -3 16 -2 19 1 4 3 -2 6 -13 5 -11 0 -14 -3 -6 -6z"/>
<path d="M2173 3283 c9 -2 23 -2 30 0 6 3 -1 5 -18 5 -16 0 -22 -2 -12 -5z"/>
<path d="M2258 3283 c7 -3 16 -2 19 1 4 3 -2 6 -13 5 -11 0 -14 -3 -6 -6z"/>
<path d="M622 3411 c2 -5 29 -30 61 -56 39 -32 62 -44 69 -37 6 6 -9 25 -47
56 -52 42 -92 60 -83 37z"/>
<path d="M1801 2732 c-19 -9 -37 -23 -39 -31 -4 -11 1 -10 19 3 66 46 151 40
214 -15 41 -37 48 -25 8 13 -53 50 -138 63 -202 30z"/>
<path d="M2368 2725 c-21 -14 -43 -35 -49 -48 -10 -20 -8 -19 17 5 45 42 110
61 162 48 24 -6 56 -18 70 -28 26 -16 26 -16 13 1 -42 53 -151 64 -213 22z"/>
<path d="M2445 2690 c-51 -8 -76 -22 -109 -61 -53 -62 -43 -100 36 -140 81
-41 177 -11 227 71 29 48 27 65 -11 94 -42 31 -92 44 -143 36z m99 -43 c9 -15
7 -21 -9 -33 -37 -27 -87 1 -72 40 9 23 66 18 81 -7z"/>
<path d="M1783 2674 c-49 -24 -66 -48 -58 -82 13 -62 101 -122 176 -122 32 1
100 32 123 58 12 14 16 29 12 46 -8 32 -51 83 -87 101 -37 19 -126 19 -166 -1z
m177 -19 c22 -26 8 -50 -29 -50 -44 0 -65 29 -37 51 25 18 50 18 66 -1z"/>
<path d="M2214 2552 c-9 -5 -8 -10 1 -19 11 -10 13 -9 12 7 -1 11 -1 20 -2 20
0 0 -5 -4 -11 -8z"/>
<path d="M2115 2539 c-11 -16 -1 -19 13 -3 7 8 8 14 3 14 -5 0 -13 -5 -16 -11z"/>
<path d="M2019 2493 l-24 -28 28 24 c25 23 32 31 24 31 -2 0 -14 -12 -28 -27z"/>
<path d="M2310 2495 c13 -14 26 -25 28 -25 3 0 -5 11 -18 25 -13 14 -26 25
-28 25 -3 0 5 -11 18 -25z"/>
<path d="M2095 2426 c-16 -11 -11 -12 33 -3 38 8 64 8 95 0 48 -13 63 -9 23 7
-39 14 -129 12 -151 -4z"/>
<path d="M2143 2403 c15 -2 39 -2 55 0 15 2 2 4 -28 4 -30 0 -43 -2 -27 -4z"/>
<path d="M3275 2304 c-9 -15 -12 -23 -6 -20 11 7 35 46 28 46 -3 0 -12 -12
-22 -26z"/>
<path d="M2120 2171 c0 -5 7 -11 15 -15 9 -3 15 0 15 9 0 8 -7 15 -15 15 -8 0
-15 -4 -15 -9z"/>
<path d="M2180 2164 c0 -8 5 -12 10 -9 6 3 10 10 10 16 0 5 -4 9 -10 9 -5 0
-10 -7 -10 -16z"/>
<path d="M2096 2134 c-8 -21 -6 -23 17 -15 17 6 17 9 4 19 -12 10 -16 9 -21
-4z"/>
<path d="M2210 2135 c-10 -12 -10 -15 4 -15 9 0 16 7 16 15 0 8 -2 15 -4 15
-2 0 -9 -7 -16 -15z"/>
<path d="M2106 2075 c4 -8 10 -12 15 -9 14 8 10 24 -6 24 -9 0 -12 -6 -9 -15z"/>
<path d="M2196 2075 c4 -8 7 -15 9 -15 1 0 8 7 15 15 10 13 9 15 -8 15 -15 0
-20 -5 -16 -15z"/>
<path d="M2155 2070 c-8 -13 -1 -24 14 -19 6 3 7 10 2 18 -6 10 -10 10 -16 1z"/>
<path d="M1801 2054 c0 -11 3 -14 6 -6 3 7 2 16 -1 19 -3 4 -6 -2 -5 -13z"/>
<path d="M328 2003 c6 -2 18 -2 25 0 6 3 1 5 -13 5 -14 0 -19 -2 -12 -5z"/>
<path d="M620 1455 c-26 -14 -37 -24 -27 -25 23 0 77 28 77 40 0 12 3 13 -50
-15z"/>
<path d="M3620 1382 c0 -4 21 -18 47 -31 35 -17 43 -19 33 -6 -13 15 -62 45
-75 45 -3 0 -5 -4 -5 -8z"/>
<path d="M3510 1203 c0 -9 74 -63 86 -63 4 0 -1 9 -12 21 -21 24 -74 54 -74
42z"/>
<path d="M2227 1039 c7 -7 15 -10 18 -7 3 3 -2 9 -12 12 -14 6 -15 5 -6 -5z"/>
<path d="M2352 930 c0 -14 2 -19 5 -12 2 6 2 18 0 25 -3 6 -5 1 -5 -13z"/>
<path d="M2041 904 c0 -11 3 -14 6 -6 3 7 2 16 -1 19 -3 4 -6 -2 -5 -13z"/>
<path d="M2034 846 c2 -36 46 -56 137 -63 47 -3 93 -2 102 3 10 6 -20 9 -81 9
-102 1 -146 16 -155 53 -3 13 -4 12 -3 -2z"/>
<path d="M2158 823 c7 -3 16 -2 19 1 4 3 -2 6 -13 5 -11 0 -14 -3 -6 -6z"/>
<path d="M2576 1041 c-14 -15 -15 -24 -7 -38 8 -14 11 -15 12 -3 1 8 3 20 3
25 1 6 5 16 9 23 12 18 2 15 -17 -7z"/>
<path d="M2686 964 c-10 -14 -27 -29 -39 -34 -18 -7 -19 -9 -4 -9 18 -1 67 44
67 60 0 15 -7 10 -24 -17z"/>
<path d="M1601 1012 c-1 -26 28 -82 42 -82 5 0 0 12 -11 28 -11 15 -22 38 -25
52 -4 25 -4 25 -6 2z"/>
<path d="M1580 964 c0 -6 7 -19 16 -30 14 -18 14 -18 3 6 -14 31 -19 36 -19
24z"/>
<path d="M3260 700 c6 -11 13 -20 16 -20 2 0 0 9 -6 20 -6 11 -13 20 -16 20
-2 0 0 -9 6 -20z"/>
<path d="M1461 637 c-5 -13 -29 -67 -54 -120 -25 -53 -41 -99 -36 -102 5 -4
13 4 18 17 5 13 30 67 55 122 51 110 50 106 36 106 -6 0 -14 -10 -19 -23z"/>
<path d="M2520 538 c1 -33 58 -242 67 -245 5 -2 -4 55 -21 127 -16 71 -34 130
-38 130 -4 0 -8 -6 -8 -12z"/>
</g>
</svg>
